<svg width="740" height="317" viewBox="0 0 740 317" fill="none" xmlns="http://www.w3.org/2000/svg">
<g clip-path="url(#clip0)">
<path d="M162.425 176.847C162.432 175.874 162.238 174.91 161.856 174.015C161.473 173.121 160.911 172.314 160.203 171.647C159.495 170.98 158.657 170.465 157.741 170.136C156.826 169.807 155.852 169.671 154.881 169.735C153.91 169.799 152.963 170.062 152.099 170.509C151.235 170.956 150.472 171.576 149.858 172.33C149.244 173.085 148.792 173.958 148.53 174.896C148.269 175.833 148.204 176.814 148.338 177.777L128.004 204.409C127.136 206.145 126.8 208.098 127.037 210.023C127.274 211.949 128.074 213.762 129.336 215.236L130.931 217.097L138.25 215.633L146.545 208.313L145.569 200.017L155.816 183.914L155.803 183.902C157.596 183.788 159.279 182.995 160.509 181.684C161.739 180.374 162.424 178.644 162.425 176.847Z" fill="#FFB9B9"/>
<path d="M21.8055 307.045L18.4861 294.716L64.4561 276.046L69.3549 294.242L21.8055 307.045Z" fill="#FFB8B8"/>
<path d="M10.7021 313.407L0 273.654L0.502759 273.518C4.60601 272.413 8.98 272.984 12.6627 275.104C16.3453 277.225 19.035 280.721 20.1401 284.825L20.1404 284.826L26.6768 309.106L10.7021 313.407Z" fill="#2F2E41"/>
<path d="M85.1271 305.075L74.8025 297.566L98.8509 254.163L114.09 265.246L85.1271 305.075Z" fill="#FFB8B8"/>
<path d="M80.4823 317L47.19 292.786L47.4962 292.365C49.9956 288.928 53.7577 286.625 57.9549 285.962C62.1522 285.299 66.441 286.33 69.8779 288.83L69.8787 288.83L90.2124 303.619L80.4823 317Z" fill="#2F2E41"/>
<path d="M172.894 244.424L146.912 219.181C144.644 216.978 141.657 215.668 138.501 215.492C135.345 215.315 132.231 216.285 129.732 218.221L80.6737 272.727L85.0653 279.559L131.907 247.839L163.623 289.318L193.875 274.191L172.894 244.424Z" fill="#2F2E41"/>
<path d="M161.671 249.792L142.642 248.328L128.861 244.986C128.082 243.772 126.951 242.824 125.619 242.27C124.288 241.716 122.818 241.582 121.408 241.886C119.998 242.19 118.715 242.918 117.73 243.972C116.745 245.026 116.105 246.355 115.896 247.783C115.688 249.21 115.92 250.667 116.562 251.959C117.205 253.251 118.226 254.315 119.49 255.01C120.754 255.706 122.2 255.998 123.635 255.848C125.07 255.699 126.424 255.114 127.518 254.173L127.516 254.183L135.811 257.599L171.43 269.799L175.821 266.383L161.671 249.792Z" fill="#FFB9B9"/>
<path d="M207.537 302.494L196.802 309.326H184.116L125.076 287.367L38.7114 302.982L36.2718 284.438L115.318 249.792L184.604 272.727L207.537 302.494Z" fill="#2F2E41"/>
<path d="M184.604 183.914C195.114 183.914 203.634 175.393 203.634 164.882C203.634 154.371 195.114 145.851 184.604 145.851C174.095 145.851 165.575 154.371 165.575 164.882C165.575 175.393 174.095 183.914 184.604 183.914Z" fill="#FFB9B9"/>
<path d="M233.842 240.866C233.842 252.352 232.032 263.766 228.479 274.689L227.055 279.071L220.224 310.302L212.904 312.254L207.537 305.422L196.803 297.614L188.996 284.927L182.301 273.771L180.213 270.287L172.894 233.688L145.081 218.073L135.811 216.609L137.762 211.241L146.057 200.017L154.352 199.041L156.792 197.089L158.744 198.065L169.503 202.21L204.385 187.471L209.489 188.305L227.055 202.945C231.545 215.084 233.843 227.924 233.842 240.866Z" fill="#CCCCCC"/>
<path opacity="0.1" d="M228.518 236.616L209.977 248.815L182.301 273.771L180.213 270.287L174.357 241.008H175.821L190.948 213.193L228.518 236.616Z" fill="black"/>
<path d="M190.948 210.265L175.822 238.08L167.039 247.84L159.232 249.792L180.213 272.727L209.977 245.888L228.518 233.688L190.948 210.265Z" fill="#CCCCCC"/>
<path d="M169.803 150.732L167.741 151.525C167.428 151.313 167.16 151.041 166.952 150.726C166.744 150.41 166.6 150.057 166.529 149.686C166.457 149.314 166.46 148.933 166.536 148.562C166.612 148.192 166.76 147.84 166.972 147.527C166.983 147.511 166.994 147.495 167.006 147.479L163.195 147.3C165.641 144.042 168.751 141.341 172.319 139.375C175.887 137.409 179.831 136.223 183.892 135.896C187.952 135.569 192.035 136.107 195.872 137.476C199.709 138.846 203.211 141.014 206.147 143.838C206.32 143.24 208.211 144.403 208.983 145.582C209.243 144.609 211.016 149.309 211.643 152.632C211.933 151.526 213.05 153.311 212.072 155.025C212.691 154.934 212.971 156.52 212.491 157.403C213.169 157.085 213.055 158.978 212.32 160.242C213.287 160.157 212.238 180.083 197.72 178.631C196.71 173.987 196.995 174.276 195.804 168.304C195.251 167.716 194.644 167.18 194.038 166.646L190.763 163.754C186.954 160.392 183.489 156.242 178.415 154.985C174.928 154.121 172.724 153.927 174.624 149.997C172.907 150.713 171.304 151.779 169.571 152.444C169.595 151.895 169.837 151.281 169.803 150.732Z" fill="#2F2E41"/>
<path d="M194.119 170.494C196.005 170.494 197.535 168.965 197.535 167.078C197.535 165.192 196.005 163.662 194.119 163.662C192.233 163.662 190.703 165.192 190.703 167.078C190.703 168.965 192.233 170.494 194.119 170.494Z" fill="#FFB9B9"/>
<path d="M34.8394 86.402L33.7971 102.055L49.4483 103.097L50.4906 87.4444L34.8394 86.402Z" fill="#E6E6E6"/>
<path d="M24.7413 94.7135L43.7463 95.9793L42.4806 114.986L23.4756 113.72L24.7413 94.7135ZM42.865 96.7507L25.5126 95.5949L24.357 112.949L41.7093 114.105L42.865 96.7507Z" fill="#CCCCCC"/>
<path d="M123.287 39.9869L107.951 43.2825L111.246 58.6198L126.582 55.3243L123.287 39.9869Z" fill="#E6E6E6"/>
<path d="M112.523 32.5581L116.524 51.182L97.902 55.1837L93.9007 36.5598L112.523 32.5581ZM115.54 50.5463L111.887 33.5418L94.8843 37.1956L98.5377 54.2L115.54 50.5463Z" fill="#CCCCCC"/>
<path d="M107.172 113.642L95.7243 124.367L106.448 135.816L117.896 125.092L107.172 113.642Z" fill="#E6E6E6"/>
<path d="M118.719 112.038L104.817 125.06L91.7965 111.158L105.698 98.1353L118.719 112.038ZM104.856 123.89L117.548 112L105.66 99.306L92.9671 111.196L104.856 123.89Z" fill="#CCCCCC"/>
<path d="M699.202 0H235.101C233.424 -1.9066e-06 231.762 0.330439 230.213 0.972456C228.663 1.61447 227.255 2.55549 226.068 3.74178C224.882 4.92807 223.941 6.33641 223.299 7.88638C222.657 9.43635 222.327 11.0976 222.327 12.7753V271.389C222.327 273.067 222.657 274.728 223.299 276.278C223.941 277.828 224.882 279.237 226.068 280.423C227.255 281.609 228.663 282.55 230.213 283.192C231.762 283.834 233.424 284.165 235.101 284.165H699.202C702.59 284.165 705.839 282.819 708.234 280.423C710.63 278.027 711.976 274.778 711.976 271.389V12.7753C711.976 9.38705 710.63 6.13762 708.234 3.74179C705.839 1.34596 702.59 1.92529e-06 699.202 0Z" fill="#3F3D56"/>
<path d="M694.85 22.5775H239.453V279.494H694.85V22.5775Z" fill="white"/>
<path d="M466.762 15.5707C469.342 15.5707 471.433 13.4793 471.433 10.8995C471.433 8.31964 469.342 6.22827 466.762 6.22827C464.183 6.22827 462.091 8.31964 462.091 10.8995C462.091 13.4793 464.183 15.5707 466.762 15.5707Z" fill="white"/>
<path d="M564.614 279.494H239.453V22.5779L564.614 279.494Z" fill="#F2F2F2"/>
<path d="M310.709 260.268C334.885 260.268 354.483 240.668 354.483 216.49C354.483 192.312 334.885 172.711 310.709 172.711C286.533 172.711 266.935 192.312 266.935 216.49C266.935 240.668 286.533 260.268 310.709 260.268Z" fill="#FFEDCB"/>
<path d="M320.454 249.394C309.684 249.394 299.157 246.2 290.202 240.216C281.248 234.232 274.269 225.728 270.148 215.777C266.026 205.826 264.948 194.877 267.049 184.314C269.15 173.75 274.336 164.047 281.951 156.431C289.566 148.815 299.268 143.629 309.831 141.528C320.393 139.426 331.341 140.505 341.291 144.627C351.241 148.748 359.745 155.728 365.728 164.683C371.711 173.639 374.904 184.167 374.904 194.937C374.904 202.089 373.496 209.17 370.76 215.777C368.023 222.384 364.012 228.387 358.956 233.444C353.9 238.501 347.897 242.512 341.291 245.248C334.685 247.985 327.604 249.394 320.454 249.394ZM320.454 141.193C309.825 141.193 299.435 144.345 290.598 150.251C281.76 156.156 274.873 164.55 270.805 174.37C266.738 184.191 265.674 194.997 267.747 205.422C269.821 215.848 274.939 225.424 282.454 232.94C289.97 240.457 299.545 245.575 309.97 247.649C320.394 249.723 331.199 248.659 341.019 244.591C350.838 240.523 359.231 233.634 365.136 224.796C371.041 215.958 374.193 205.567 374.193 194.938C374.193 187.88 372.803 180.891 370.102 174.37C367.401 167.85 363.443 161.925 358.453 156.935C353.463 151.944 347.538 147.985 341.019 145.284C334.499 142.583 327.511 141.193 320.454 141.193L320.454 141.193Z" fill="#3F3D56"/>
<path d="M589.427 156.053H546.888V164.942H589.427V156.053Z" fill="#3F3D56"/>
<path d="M629.673 107.893H506.642V111.702H629.673V107.893Z" fill="#3F3D56"/>
<path d="M629.673 122.861H506.642V126.671H629.673V122.861Z" fill="#3F3D56"/>
<path d="M629.673 137.829H506.642V141.639H629.673V137.829Z" fill="#3F3D56"/>
<path d="M662.63 37.9528H644.853V55.7321H662.63V37.9528Z" fill="#FFEDCB"/>
<path d="M670.884 63.9867H649.297V42.3976H670.884V63.9867ZM650.236 63.0481H669.945V43.3363H650.236L650.236 63.0481Z" fill="#CCCCCC"/>
<path d="M724.762 274.822H680.318V271.62C680.318 271.536 680.302 271.454 680.27 271.377C680.238 271.3 680.191 271.23 680.132 271.171C680.073 271.112 680.003 271.065 679.926 271.033C679.849 271.001 679.767 270.985 679.683 270.985H664.446C664.362 270.985 664.28 271.001 664.203 271.033C664.126 271.065 664.056 271.112 663.997 271.171C663.938 271.23 663.891 271.3 663.859 271.377C663.827 271.454 663.811 271.536 663.811 271.62V274.822H654.287V271.62C654.287 271.536 654.271 271.454 654.239 271.377C654.207 271.3 654.16 271.23 654.101 271.171C654.042 271.112 653.972 271.065 653.895 271.033C653.818 271.001 653.735 270.985 653.652 270.985H638.414C638.331 270.985 638.248 271.001 638.171 271.033C638.094 271.065 638.024 271.112 637.965 271.171C637.906 271.23 637.86 271.3 637.828 271.377C637.796 271.454 637.779 271.536 637.779 271.62V274.822H628.256V271.62C628.256 271.536 628.239 271.454 628.207 271.377C628.176 271.3 628.129 271.23 628.07 271.171C628.011 271.112 627.941 271.065 627.864 271.033C627.787 271.001 627.704 270.985 627.621 270.985H612.383C612.3 270.985 612.217 271.001 612.14 271.033C612.063 271.065 611.993 271.112 611.934 271.171C611.875 271.23 611.828 271.3 611.796 271.377C611.764 271.454 611.748 271.536 611.748 271.62V274.822H602.224V271.62C602.224 271.536 602.208 271.454 602.176 271.377C602.144 271.3 602.097 271.23 602.038 271.171C601.979 271.112 601.909 271.065 601.832 271.033C601.755 271.001 601.673 270.985 601.589 270.985H586.352C586.268 270.985 586.186 271.001 586.109 271.033C586.032 271.065 585.962 271.112 585.903 271.171C585.844 271.23 585.797 271.3 585.765 271.377C585.733 271.454 585.717 271.536 585.717 271.62V274.822H576.193V271.62C576.193 271.536 576.177 271.454 576.145 271.377C576.113 271.3 576.066 271.23 576.007 271.171C575.948 271.112 575.878 271.065 575.801 271.033C575.724 271.001 575.642 270.985 575.558 270.985H560.32C560.237 270.985 560.154 271.001 560.077 271.033C560 271.065 559.93 271.112 559.871 271.171C559.812 271.23 559.766 271.3 559.734 271.377C559.702 271.454 559.685 271.536 559.685 271.62V274.822H550.162V271.62C550.162 271.536 550.145 271.454 550.113 271.377C550.081 271.3 550.035 271.23 549.976 271.171C549.917 271.112 549.847 271.065 549.77 271.033C549.693 271.001 549.61 270.985 549.527 270.985H534.289C534.206 270.985 534.123 271.001 534.046 271.033C533.969 271.065 533.899 271.112 533.84 271.171C533.781 271.23 533.734 271.3 533.702 271.377C533.67 271.454 533.654 271.536 533.654 271.62V274.822H524.13V271.62C524.13 271.536 524.114 271.454 524.082 271.377C524.05 271.3 524.003 271.23 523.944 271.171C523.885 271.112 523.816 271.065 523.738 271.033C523.661 271.001 523.579 270.985 523.496 270.985H404.132C404.049 270.985 403.966 271.001 403.889 271.033C403.812 271.065 403.742 271.112 403.683 271.171C403.624 271.23 403.578 271.3 403.546 271.377C403.514 271.454 403.497 271.536 403.497 271.62V274.822H393.974V271.62C393.974 271.536 393.957 271.454 393.925 271.377C393.893 271.3 393.847 271.23 393.788 271.171C393.729 271.112 393.659 271.065 393.582 271.033C393.505 271.001 393.422 270.985 393.339 270.985H378.101C378.018 270.985 377.935 271.001 377.858 271.033C377.781 271.065 377.711 271.112 377.652 271.171C377.593 271.23 377.546 271.3 377.514 271.377C377.482 271.454 377.466 271.536 377.466 271.62V274.822H367.942V271.62C367.942 271.536 367.926 271.454 367.894 271.377C367.862 271.3 367.815 271.23 367.756 271.171C367.698 271.112 367.628 271.065 367.551 271.033C367.473 271.001 367.391 270.985 367.308 270.985H352.07C351.986 270.985 351.904 271.001 351.827 271.033C351.75 271.065 351.68 271.112 351.621 271.171C351.562 271.23 351.515 271.3 351.483 271.377C351.451 271.454 351.435 271.536 351.435 271.62V274.822H341.911V271.62C341.911 271.536 341.895 271.454 341.863 271.377C341.831 271.3 341.784 271.23 341.725 271.171C341.666 271.112 341.596 271.065 341.519 271.033C341.442 271.001 341.36 270.985 341.276 270.985H326.038C325.955 270.985 325.872 271.001 325.795 271.033C325.718 271.065 325.648 271.112 325.589 271.171C325.53 271.23 325.484 271.3 325.452 271.377C325.42 271.454 325.403 271.536 325.403 271.62V274.822H315.88V271.62C315.88 271.536 315.863 271.454 315.831 271.377C315.8 271.3 315.753 271.23 315.694 271.171C315.635 271.112 315.565 271.065 315.488 271.033C315.411 271.001 315.328 270.985 315.245 270.985H300.007C299.924 270.985 299.841 271.001 299.764 271.033C299.687 271.065 299.617 271.112 299.558 271.171C299.499 271.23 299.452 271.3 299.42 271.377C299.388 271.454 299.372 271.536 299.372 271.62V274.822H289.848V271.62C289.848 271.536 289.832 271.454 289.8 271.377C289.768 271.3 289.721 271.23 289.662 271.171C289.603 271.112 289.533 271.065 289.456 271.033C289.379 271.001 289.297 270.985 289.213 270.985H273.976C273.807 270.985 273.646 271.052 273.527 271.171C273.408 271.29 273.341 271.451 273.341 271.62V274.822H263.817V271.62C263.817 271.536 263.801 271.454 263.769 271.377C263.737 271.3 263.69 271.23 263.631 271.171C263.572 271.112 263.502 271.065 263.425 271.033C263.348 271.001 263.266 270.985 263.182 270.985H247.944C247.776 270.985 247.614 271.052 247.495 271.171C247.376 271.29 247.309 271.451 247.309 271.62V274.822H218.103C214.062 274.822 210.186 276.428 207.329 279.286C204.471 282.144 202.866 286.02 202.866 290.062V296.953C202.866 300.994 204.471 304.871 207.329 307.728C210.186 310.586 214.062 312.192 218.103 312.192H724.762C728.803 312.192 732.679 310.586 735.537 307.728C738.395 304.871 740 300.994 740 296.953V290.062C740 288.06 739.606 286.079 738.84 284.23C738.074 282.381 736.952 280.701 735.537 279.286C734.122 277.871 732.442 276.748 730.593 275.982C728.745 275.217 726.763 274.822 724.762 274.822Z" fill="#3F3D56"/>
</g>
<defs>
<clipPath id="clip0">
<rect width="740" height="317" fill="white"/>
</clipPath>
</defs>
</svg>
