<svg width="130" height="131" viewBox="0 0 130 131" fill="none" xmlns="http://www.w3.org/2000/svg">
<path d="M130 64.9959C130 100.897 100.898 130.001 64.9983 130.001C29.1003 130.001 0 100.897 0 64.9959C0 29.1003 29.0992 0 64.9983 0C100.898 0 130 29.1003 130 64.9959Z" fill="black"/>
<path d="M93.4194 24.0494C86.8166 24.2754 81.0528 27.9204 76.761 32.9505C72.0091 38.4732 68.852 45.017 66.5722 51.7033C62.4994 48.363 59.3597 44.0411 52.8217 42.1612C47.7696 40.7089 42.4648 41.307 37.5854 44.9416C35.2767 46.6674 33.6831 49.274 32.9262 51.7322C30.9652 58.1045 34.9869 63.7813 36.8135 65.8153L40.8086 70.0932C41.6304 70.9335 43.6157 73.1217 42.6445 76.258C41.6014 79.6736 37.4858 81.8792 33.2658 80.5822C31.3801 80.0039 28.6727 78.6003 29.28 76.6265C29.5292 75.8164 30.1087 75.2068 30.4204 74.516C30.7032 73.9122 30.8412 73.4648 30.9281 73.1947C31.6988 70.6808 30.6441 67.4066 27.9495 66.5733C25.4332 65.8014 22.8602 66.4134 21.8623 69.6505C20.73 73.3292 22.4917 80.0062 31.9237 82.9107C42.9748 86.3124 52.3187 80.2925 53.6458 72.4495C54.4814 67.5365 52.2608 63.8821 48.1973 59.1893L44.8837 55.5234C42.8786 53.5194 42.1902 50.1027 44.2659 47.4775C46.0184 45.2615 48.5125 44.3181 52.6004 45.4284C58.5692 47.0464 61.2269 51.1875 65.6635 54.5278C63.8346 60.5395 62.635 66.5722 61.5525 71.9812L60.8873 76.0158C57.7162 92.6498 55.2939 101.786 49.0005 107.031C47.7325 107.934 45.9199 109.283 43.1892 109.38C41.7544 109.423 41.2919 108.437 41.2722 108.005C41.2409 107.003 42.087 106.541 42.6491 106.091C43.4917 105.632 44.7632 104.87 44.6751 102.433C44.5847 99.554 42.1983 97.0564 38.7514 97.1699C36.168 97.2569 32.232 99.6861 32.3803 104.137C32.5322 108.735 36.8159 112.178 43.2762 111.96C46.7288 111.842 54.4409 110.439 62.0382 101.407C70.8825 91.0515 73.357 79.1833 75.2184 70.4954L77.2965 59.0247C78.4462 59.1626 79.6829 59.2565 81.025 59.289C92.0402 59.5219 97.5478 53.8185 97.6312 49.6669C97.688 47.1553 95.9855 44.6808 93.5991 44.74C91.8942 44.7875 89.7512 45.9245 89.2389 48.283C88.7336 50.5953 92.7426 52.6849 89.6098 54.719C87.3845 56.1585 83.3963 57.1715 77.7775 56.3497L78.7986 50.703C80.8836 39.9961 83.4554 26.8275 93.212 26.5053C93.9247 26.4717 96.5232 26.5354 96.5847 28.2577C96.6009 28.8291 96.4583 28.9798 95.7861 30.2941C95.1 31.3187 94.8427 32.1949 94.8763 33.1962C94.969 35.9269 97.0471 37.7256 100.058 37.6213C104.083 37.4869 105.238 33.5694 105.172 31.5563C105.003 26.8217 100.015 23.8315 93.4194 24.0494Z" fill="white"/>
</svg>
